<mxfile host="app.diagrams.net" agent="Mozilla/5.0 (Windows NT 10.0; Win64; x64) AppleWebKit/537.36 (KHTML, like Gecko) Chrome/128.0.0.0 Safari/537.36" version="24.7.8">
  <diagram id="kxRLgqtyPUPODApyAhIn" name="Page-1">
    <mxGraphModel dx="365" dy="724" grid="1" gridSize="10" guides="1" tooltips="1" connect="1" arrows="1" fold="1" page="1" pageScale="1" pageWidth="850" pageHeight="1100" math="0" shadow="0">
      <root>
        <mxCell id="0" />
        <mxCell id="1" parent="0" />
        <mxCell id="2jnVX69dDedr7s7oy9dX-1" value="&lt;font style=&quot;font-size: 16px;&quot;&gt;0&lt;/font&gt;" style="ellipse;whiteSpace=wrap;html=1;aspect=fixed;" vertex="1" parent="1">
          <mxGeometry x="220" y="200" width="80" height="80" as="geometry" />
        </mxCell>
        <mxCell id="2jnVX69dDedr7s7oy9dX-2" value="2" style="ellipse;whiteSpace=wrap;html=1;aspect=fixed;fontSize=16;" vertex="1" parent="1">
          <mxGeometry x="440" y="70" width="80" height="80" as="geometry" />
        </mxCell>
        <mxCell id="2jnVX69dDedr7s7oy9dX-3" value="1" style="ellipse;whiteSpace=wrap;html=1;aspect=fixed;fontSize=16;" vertex="1" parent="1">
          <mxGeometry x="440" y="200" width="80" height="80" as="geometry" />
        </mxCell>
        <mxCell id="2jnVX69dDedr7s7oy9dX-4" value="3" style="ellipse;whiteSpace=wrap;html=1;aspect=fixed;fontSize=16;" vertex="1" parent="1">
          <mxGeometry x="440" y="330" width="80" height="80" as="geometry" />
        </mxCell>
        <mxCell id="2jnVX69dDedr7s7oy9dX-5" value="" style="endArrow=none;html=1;rounded=0;exitX=1;exitY=0.5;exitDx=0;exitDy=0;entryX=0;entryY=0.5;entryDx=0;entryDy=0;" edge="1" parent="1" source="2jnVX69dDedr7s7oy9dX-1" target="2jnVX69dDedr7s7oy9dX-3">
          <mxGeometry width="50" height="50" relative="1" as="geometry">
            <mxPoint x="400" y="370" as="sourcePoint" />
            <mxPoint x="450" y="320" as="targetPoint" />
          </mxGeometry>
        </mxCell>
        <mxCell id="2jnVX69dDedr7s7oy9dX-6" value="" style="endArrow=none;html=1;rounded=0;exitX=1;exitY=0.5;exitDx=0;exitDy=0;entryX=0;entryY=0.5;entryDx=0;entryDy=0;" edge="1" parent="1" source="2jnVX69dDedr7s7oy9dX-1" target="2jnVX69dDedr7s7oy9dX-2">
          <mxGeometry width="50" height="50" relative="1" as="geometry">
            <mxPoint x="310" y="260" as="sourcePoint" />
            <mxPoint x="450" y="140" as="targetPoint" />
          </mxGeometry>
        </mxCell>
        <mxCell id="2jnVX69dDedr7s7oy9dX-7" value="" style="endArrow=none;html=1;rounded=0;exitX=1;exitY=0.5;exitDx=0;exitDy=0;entryX=0;entryY=0.5;entryDx=0;entryDy=0;" edge="1" parent="1" source="2jnVX69dDedr7s7oy9dX-1" target="2jnVX69dDedr7s7oy9dX-4">
          <mxGeometry width="50" height="50" relative="1" as="geometry">
            <mxPoint x="310" y="260" as="sourcePoint" />
            <mxPoint x="450" y="260" as="targetPoint" />
          </mxGeometry>
        </mxCell>
        <mxCell id="2jnVX69dDedr7s7oy9dX-8" value="&lt;font style=&quot;font-size: 16px;&quot;&gt;-1&lt;/font&gt;" style="text;html=1;align=center;verticalAlign=middle;resizable=0;points=[];autosize=1;strokeColor=none;fillColor=none;" vertex="1" parent="1">
          <mxGeometry x="370" y="210" width="40" height="30" as="geometry" />
        </mxCell>
        <mxCell id="2jnVX69dDedr7s7oy9dX-9" value="&lt;font style=&quot;font-size: 16px;&quot;&gt;-1&lt;/font&gt;" style="text;html=1;align=center;verticalAlign=middle;resizable=0;points=[];autosize=1;strokeColor=none;fillColor=none;" vertex="1" parent="1">
          <mxGeometry x="480" y="290" width="40" height="30" as="geometry" />
        </mxCell>
        <mxCell id="2jnVX69dDedr7s7oy9dX-10" value="" style="endArrow=none;html=1;rounded=0;entryX=0.5;entryY=1;entryDx=0;entryDy=0;exitX=0.5;exitY=0;exitDx=0;exitDy=0;" edge="1" parent="1" source="2jnVX69dDedr7s7oy9dX-3" target="2jnVX69dDedr7s7oy9dX-2">
          <mxGeometry width="50" height="50" relative="1" as="geometry">
            <mxPoint x="550" y="340" as="sourcePoint" />
            <mxPoint x="450" y="140" as="targetPoint" />
          </mxGeometry>
        </mxCell>
        <mxCell id="2jnVX69dDedr7s7oy9dX-12" value="" style="endArrow=none;html=1;rounded=0;exitX=0.5;exitY=0;exitDx=0;exitDy=0;entryX=0.5;entryY=1;entryDx=0;entryDy=0;" edge="1" parent="1" target="2jnVX69dDedr7s7oy9dX-3">
          <mxGeometry width="50" height="50" relative="1" as="geometry">
            <mxPoint x="479.5" y="330" as="sourcePoint" />
            <mxPoint x="479.5" y="290" as="targetPoint" />
          </mxGeometry>
        </mxCell>
        <mxCell id="2jnVX69dDedr7s7oy9dX-13" value="&lt;font style=&quot;font-size: 16px;&quot;&gt;-1&lt;/font&gt;" style="text;html=1;align=center;verticalAlign=middle;resizable=0;points=[];autosize=1;strokeColor=none;fillColor=none;" vertex="1" parent="1">
          <mxGeometry x="480" y="158" width="40" height="30" as="geometry" />
        </mxCell>
        <mxCell id="2jnVX69dDedr7s7oy9dX-14" value="&lt;font style=&quot;font-size: 16px;&quot;&gt;2&lt;/font&gt;" style="text;html=1;align=center;verticalAlign=middle;resizable=0;points=[];autosize=1;strokeColor=none;fillColor=none;" vertex="1" parent="1">
          <mxGeometry x="335" y="330" width="30" height="30" as="geometry" />
        </mxCell>
        <mxCell id="2jnVX69dDedr7s7oy9dX-15" value="&lt;font style=&quot;font-size: 16px;&quot;&gt;5&lt;/font&gt;" style="text;html=1;align=center;verticalAlign=middle;resizable=0;points=[];autosize=1;strokeColor=none;fillColor=none;" vertex="1" parent="1">
          <mxGeometry x="335" y="150" width="30" height="30" as="geometry" />
        </mxCell>
      </root>
    </mxGraphModel>
  </diagram>
</mxfile>
